<svg width="452" height="56" viewBox="0 0 452 56" fill="none" xmlns="http://www.w3.org/2000/svg">
<path d="M81.414 43.75C78.5317 43.75 76.0612 43.25 74.0024 42.25C71.973 41.2206 70.3112 39.8824 69.0171 38.2354C67.7525 36.5883 66.826 34.809 66.2378 32.8972C65.6496 30.9561 65.3554 29.0737 65.3554 27.2502V26.412C65.3554 24.4415 65.6496 22.4856 66.2378 20.5445C66.8554 18.5739 67.7966 16.7945 69.0613 15.2063C70.3554 13.6181 72.0024 12.3534 74.0024 11.4123C76.0023 10.4417 78.3699 9.9564 81.1052 9.9564C83.8699 9.9564 86.2522 10.4417 88.2521 11.4123C90.2815 12.3828 91.8991 13.7505 93.105 15.5151C94.3109 17.2504 95.0462 19.3092 95.3109 21.6915H91.9139C91.6786 19.7798 91.0609 18.1916 90.0609 16.9269C89.061 15.6328 87.7816 14.6622 86.2228 14.0152C84.6934 13.3681 82.9875 13.0446 81.1052 13.0446C79.0758 13.0446 77.2817 13.4122 75.7229 14.1475C74.1935 14.8534 72.9141 15.8534 71.8848 17.1475C70.8554 18.4121 70.076 19.8827 69.5466 21.5592C69.0171 23.2062 68.7524 24.9709 68.7524 26.8532C68.7524 28.6473 69.0024 30.3678 69.5024 32.0149C70.0318 33.6619 70.8259 35.1472 71.8848 36.4707C72.9436 37.7648 74.2671 38.7942 75.8553 39.5589C77.4435 40.2942 79.2964 40.6618 81.414 40.6618C84.3551 40.6618 86.8257 39.9265 88.8257 38.456C90.8256 36.956 92.0609 34.809 92.5315 32.0149H95.9285C95.605 34.2207 94.8403 36.2207 93.6344 38.0148C92.4285 39.7795 90.7962 41.1765 88.7374 42.2059C86.708 43.2353 84.2669 43.75 81.414 43.75ZM112.426 43.75C110.426 43.75 108.661 43.4118 107.132 42.7353C105.632 42.0294 104.352 41.103 103.294 39.9559C102.264 38.7795 101.47 37.4707 100.911 36.0295C100.382 34.5884 100.117 33.1178 100.117 31.6178V31.0002C100.117 29.5002 100.397 28.0296 100.955 26.5885C101.514 25.1179 102.323 23.8091 103.382 22.6621C104.441 21.515 105.72 20.6033 107.22 19.9268C108.749 19.221 110.485 18.868 112.426 18.868C114.396 18.868 116.132 19.221 117.632 19.9268C119.161 20.6033 120.455 21.515 121.514 22.6621C122.573 23.8091 123.367 25.1179 123.896 26.5885C124.455 28.0296 124.734 29.5002 124.734 31.0002V31.6178C124.734 33.1178 124.47 34.5884 123.94 36.0295C123.411 37.4707 122.617 38.7795 121.558 39.9559C120.529 41.103 119.249 42.0294 117.72 42.7353C116.19 43.4118 114.426 43.75 112.426 43.75ZM112.426 40.7942C114.367 40.7942 115.999 40.3677 117.323 39.5148C118.676 38.6324 119.705 37.4854 120.411 36.0736C121.117 34.6325 121.47 33.0443 121.47 31.309C121.47 29.5443 121.102 27.9561 120.367 26.5444C119.661 25.1032 118.632 23.9709 117.279 23.1474C115.926 22.2944 114.308 21.868 112.426 21.868C110.573 21.868 108.97 22.2944 107.617 23.1474C106.264 23.9709 105.22 25.1032 104.485 26.5444C103.779 27.9561 103.426 29.5443 103.426 31.309C103.426 33.0443 103.779 34.6325 104.485 36.0736C105.191 37.4854 106.205 38.6324 107.529 39.5148C108.882 40.3677 110.514 40.7942 112.426 40.7942ZM131.482 43V19.6621H134.129V29.4561H133.6C133.6 27.2797 133.923 25.412 134.57 23.8532C135.217 22.2944 136.188 21.0886 137.482 20.2356C138.776 19.3827 140.408 18.9563 142.379 18.9563H142.511C145.452 18.9563 147.643 19.8827 149.085 21.7356C150.526 23.5591 151.246 26.1326 151.246 29.4561V43H147.982V28.7502C147.982 26.7208 147.423 25.0885 146.305 23.8532C145.188 22.618 143.629 22.0003 141.629 22.0003C139.57 22.0003 137.908 22.6474 136.644 23.9415C135.408 25.2062 134.791 26.8826 134.791 28.9708V43H131.482ZM167.956 43.2647C166.339 43.2647 164.942 43.0294 163.765 42.5588C162.589 42.0882 161.677 41.2941 161.03 40.1765C160.383 39.0295 160.059 37.5001 160.059 35.5884V12.2946H163.236V36.0736C163.236 37.4266 163.603 38.4707 164.339 39.2059C165.074 39.9118 166.118 40.2647 167.471 40.2647H171.662V43.2647H167.956ZM155.868 22.1768V19.6621H171.662V22.1768H155.868ZM178.055 43V19.6621H180.702V29.412H180.437C180.437 26.0003 181.187 23.4856 182.687 21.868C184.187 20.2209 186.54 19.3974 189.746 19.3974H190.496V22.3974H189.128C186.599 22.3974 184.672 23.0591 183.349 24.3826C182.025 25.6767 181.363 27.5885 181.363 30.1178V43H178.055ZM206.002 43.75C204.002 43.75 202.237 43.4118 200.708 42.7353C199.208 42.0294 197.929 41.103 196.87 39.9559C195.84 38.7795 195.046 37.4707 194.488 36.0295C193.958 34.5884 193.693 33.1178 193.693 31.6178V31.0002C193.693 29.5002 193.973 28.0296 194.532 26.5885C195.09 25.1179 195.899 23.8091 196.958 22.6621C198.017 21.515 199.296 20.6033 200.796 19.9268C202.326 19.221 204.061 18.868 206.002 18.868C207.973 18.868 209.708 19.221 211.208 19.9268C212.737 20.6033 214.031 21.515 215.09 22.6621C216.149 23.8091 216.943 25.1179 217.472 26.5885C218.031 28.0296 218.311 29.5002 218.311 31.0002V31.6178C218.311 33.1178 218.046 34.5884 217.517 36.0295C216.987 37.4707 216.193 38.7795 215.134 39.9559C214.105 41.103 212.825 42.0294 211.296 42.7353C209.767 43.4118 208.002 43.75 206.002 43.75ZM206.002 40.7942C207.943 40.7942 209.576 40.3677 210.899 39.5148C212.252 38.6324 213.281 37.4854 213.987 36.0736C214.693 34.6325 215.046 33.0443 215.046 31.309C215.046 29.5443 214.678 27.9561 213.943 26.5444C213.237 25.1032 212.208 23.9709 210.855 23.1474C209.502 22.2944 207.884 21.868 206.002 21.868C204.149 21.868 202.546 22.2944 201.193 23.1474C199.84 23.9709 198.796 25.1032 198.061 26.5444C197.355 27.9561 197.002 29.5443 197.002 31.309C197.002 33.0443 197.355 34.6325 198.061 36.0736C198.767 37.4854 199.782 38.6324 201.105 39.5148C202.458 40.3677 204.09 40.7942 206.002 40.7942ZM225.279 43V10.7946H228.587V43H225.279ZM221.882 13.4858V10.7946H228.587V13.4858H221.882ZM237.385 43V10.7946H240.694V43H237.385ZM233.988 13.4858V10.7946H240.694V13.4858H233.988ZM259.021 43.75C257.021 43.75 255.285 43.4118 253.815 42.7353C252.344 42.0294 251.138 41.103 250.197 39.9559C249.256 38.7795 248.55 37.4707 248.08 36.0295C247.638 34.5884 247.418 33.1031 247.418 31.5737V30.9561C247.418 29.4561 247.638 27.9855 248.08 26.5444C248.55 25.1032 249.256 23.8091 250.197 22.6621C251.138 21.515 252.315 20.6033 253.727 19.9268C255.168 19.221 256.844 18.868 258.756 18.868C261.197 18.868 263.226 19.4121 264.844 20.5003C266.491 21.5886 267.726 22.9856 268.55 24.6915C269.373 26.3679 269.785 28.1767 269.785 30.1178V31.8384H248.918V29.2796H267.491L266.653 30.559C266.653 28.8237 266.344 27.3091 265.726 26.015C265.138 24.6915 264.256 23.6621 263.079 22.9268C261.932 22.1621 260.491 21.7797 258.756 21.7797C256.932 21.7797 255.418 22.2062 254.212 23.0591C253.006 23.9121 252.094 25.0444 251.477 26.4561C250.888 27.8679 250.594 29.4708 250.594 31.2649C250.594 33.0296 250.888 34.6472 251.477 36.1178C252.094 37.5589 253.021 38.7059 254.256 39.5589C255.521 40.4118 257.109 40.8383 259.021 40.8383C261.05 40.8383 262.697 40.3824 263.962 39.4706C265.226 38.5295 266.006 37.4266 266.3 36.1619H269.388C269.094 37.7207 268.476 39.0736 267.535 40.2206C266.594 41.3383 265.403 42.2059 263.962 42.8235C262.521 43.4412 260.874 43.75 259.021 43.75Z" fill="white"/>
<path d="M22.9139 34.5491C22.9139 35.7046 22.1225 36.6784 21.0532 36.9571V37.6528C21.0532 38.1025 20.6886 38.4671 20.239 38.4671C19.7893 38.4671 19.4247 38.1025 19.4247 37.6528V36.9909C18.8117 36.8703 18.2561 36.5198 17.8824 36.0032C17.6188 35.6388 17.7006 35.1298 18.065 34.8662C18.4294 34.6027 18.9386 34.6845 19.202 35.0488C19.3649 35.2741 19.6255 35.4086 19.8992 35.4086H20.4261C20.8999 35.4086 21.2855 35.023 21.2855 34.5491C21.2855 34.0752 20.8999 33.6898 20.4261 33.6898H20.0519C18.6799 33.6898 17.564 32.5736 17.564 31.2018C17.564 30.0463 18.3556 29.0725 19.4248 28.7938V28.0982C19.4248 27.6485 19.7894 27.2839 20.2391 27.2839C20.6887 27.2839 21.0533 27.6485 21.0533 28.0982V28.76C21.6663 28.8806 22.2219 29.231 22.5956 29.7477C22.8592 30.1121 22.7774 30.6211 22.413 30.8847C22.0486 31.1482 21.5395 31.0665 21.276 30.7021C21.1131 30.4768 20.8525 30.3423 20.5788 30.3423H20.0518C19.578 30.3423 19.1924 30.7279 19.1924 31.2018C19.1924 31.6757 19.578 32.0612 20.0518 32.0612H20.426C21.798 32.0612 22.9139 33.1773 22.9139 34.5491ZM51.4989 29.7625V51.4442C51.4989 52.7928 50.4017 53.89 49.053 53.89H27.7943C26.4457 53.89 25.3485 52.7928 25.3485 51.4442V50.6299C25.3051 50.6302 25.2618 50.6318 25.2185 50.6318H15.2594C12.8016 50.6318 10.5032 50.1113 8.428 49.0847C6.35295 48.0581 4.54466 46.5469 3.05333 44.5934C-0.356415 40.1262 -0.913374 34.9224 1.39772 29.126C3.36021 24.2038 7.04904 19.7996 10.2152 16.649C9.20278 16.3519 8.46108 15.415 8.46108 14.3077C8.46108 12.9624 9.55566 11.8678 10.901 11.8678H10.915C10.6076 11.2257 10.1995 10.589 9.29805 9.30214C8.19238 7.72388 7.27958 6.12039 8.08001 5.0823C8.83554 4.10263 10.567 4.25215 14.2553 5.61544C14.6755 5.77076 14.74 5.79478 15.3329 4.83863C16.0387 3.70039 17.1052 1.98035 20.239 1.98035C23.3727 1.98035 24.4393 3.70039 25.1449 4.83863C25.7378 5.79478 25.8023 5.77076 26.2225 5.61544C29.9112 4.25205 31.6424 4.10284 32.3979 5.0823C33.1982 6.12029 32.2855 7.72388 31.1798 9.30214C30.2783 10.589 29.8702 11.2257 29.5628 11.8678H29.5768C30.9222 11.8678 32.0168 12.9624 32.0168 14.3077C32.0168 15.4153 31.2748 16.3522 30.2621 16.6492C32.9937 19.3687 36.1964 23.1049 38.2726 27.3167H49.0531C50.4018 27.3167 51.4989 28.4139 51.4989 29.7625ZM12.6896 11.8679H27.7882C28.2361 10.7512 28.6328 10.0996 29.8461 8.36787C30.8623 6.91715 31.0422 6.30726 31.0692 6.09504C30.7968 6.03978 29.8218 6.02135 26.7872 7.14311C25.0547 7.78322 24.3069 6.5775 23.7611 5.69697C23.1246 4.67048 22.4664 3.60898 20.2391 3.60898C18.0117 3.60898 17.3535 4.67048 16.7169 5.69697C16.171 6.5774 15.4236 7.78363 13.6908 7.14311C10.6555 6.02125 9.68096 6.03998 9.40879 6.09504C9.43576 6.30726 9.61561 6.91715 10.6319 8.36787C11.8452 10.0996 12.2418 10.7512 12.6898 11.8679H12.6896ZM10.0896 14.3077C10.0896 14.7552 10.4536 15.1193 10.901 15.1193H29.5768C30.0242 15.1193 30.3883 14.7553 30.3883 14.3077C30.3883 13.8602 30.0243 13.4963 29.5768 13.4963H10.9009C10.4535 13.4963 10.0896 13.8603 10.0896 14.3077ZM25.3484 49.0013V44.0977C23.7521 44.8245 22.0103 45.2055 20.239 45.2055C13.4401 45.2055 7.90881 39.6743 7.90881 32.8755C7.90881 26.0767 13.4401 20.5453 20.239 20.5453C24.8942 20.5453 29.1572 23.1864 31.2463 27.3166H36.4419C34.1624 23.0277 30.7039 19.276 28.0241 16.7477H12.4536C9.20451 19.8127 5.00065 24.4865 2.91032 29.7291C0.826105 34.9564 1.30968 39.6251 4.34771 43.6051C7.04334 47.1365 10.8166 49.0031 15.2592 49.0031H25.2183C25.2617 49.0031 25.3049 49.0015 25.3483 49.0011L25.3484 49.0013ZM25.3484 29.7625C25.3484 29.2163 25.5285 28.7113 25.8323 28.3038C24.4653 26.6321 22.4204 25.6519 20.2389 25.6519C16.2558 25.6519 13.0153 28.8924 13.0153 32.8755C13.0153 36.8586 16.2558 40.0991 20.2389 40.0991C22.154 40.0991 23.9983 39.3294 25.3483 37.9794V29.7625H25.3484ZM27.7942 27.3167H29.3836C27.4582 24.1564 23.996 22.174 20.2389 22.174C14.338 22.174 9.53724 26.9747 9.53724 32.8756C9.53724 38.7765 14.338 43.5771 20.2389 43.5771C22.0305 43.5771 23.787 43.1291 25.3483 42.2796V40.1019C23.8651 41.1488 22.0784 41.7277 20.2389 41.7277C15.3578 41.7277 11.3867 37.7566 11.3867 32.8756C11.3867 27.9946 15.3578 24.0235 20.2389 24.0235C22.9638 24.0235 25.514 25.272 27.1879 27.3929C27.3818 27.3433 27.585 27.3168 27.7941 27.3168L27.7942 27.3167ZM49.8703 29.7625C49.8703 29.3118 49.5036 28.9452 49.053 28.9452H27.7943C27.3436 28.9452 26.977 29.312 26.977 29.7625V51.4442C26.977 51.8948 27.3437 52.2615 27.7943 52.2615H49.053C49.5037 52.2615 49.8703 51.8947 49.8703 51.4442V29.7625ZM34.4766 37.6135C34.4766 39.14 33.4277 40.426 32.013 40.789V49.2863C32.013 49.736 31.6484 50.1006 31.1987 50.1006C30.749 50.1006 30.3844 49.736 30.3844 49.2863V40.789C28.9695 40.426 27.9205 39.14 27.9205 37.6135C27.9205 36.0871 28.9695 34.8008 30.3844 34.4379V31.9204C30.3844 31.4707 30.749 31.1061 31.1987 31.1061C31.6484 31.1061 32.013 31.4707 32.013 31.9204V34.4379C33.4277 34.8008 34.4766 36.087 34.4766 37.6135ZM32.8481 37.6135C32.8481 36.7039 32.1081 35.9639 31.1987 35.9639C30.2893 35.9639 29.5491 36.704 29.5491 37.6135C29.5491 38.523 30.2892 39.2629 31.1987 39.2629C32.1082 39.2629 32.8481 38.5229 32.8481 37.6135ZM41.7017 44.7508C41.7017 46.2773 40.6528 47.5634 39.2379 47.9263V49.2863C39.2379 49.736 38.8734 50.1006 38.4237 50.1006C37.974 50.1006 37.6094 49.736 37.6094 49.2863V47.9263C36.1945 47.5634 35.1456 46.2773 35.1456 44.7508C35.1456 43.2242 36.1945 41.9382 37.6094 41.5752V31.9204C37.6094 31.4707 37.974 31.1061 38.4237 31.1061C38.8734 31.1061 39.2379 31.4707 39.2379 31.9204V41.5752C40.6528 41.9382 41.7017 43.2242 41.7017 44.7508ZM40.0732 44.7508C40.0732 43.8411 39.3332 43.1013 38.4237 43.1013C37.5141 43.1013 36.7742 43.8412 36.7742 44.7508C36.7742 45.6603 37.5141 46.4003 38.4237 46.4003C39.3332 46.4003 40.0732 45.6603 40.0732 44.7508ZM48.9266 37.6135C48.9266 39.14 47.8777 40.426 46.4628 40.789V49.2863C46.4628 49.736 46.0983 50.1006 45.6486 50.1006C45.1989 50.1006 44.8343 49.736 44.8343 49.2863V40.789C43.4194 40.426 42.3705 39.14 42.3705 37.6135C42.3705 36.0871 43.4194 34.8008 44.8343 34.4379V31.9204C44.8343 31.4707 45.1989 31.1061 45.6486 31.1061C46.0983 31.1061 46.4628 31.4707 46.4628 31.9204V34.4379C47.8777 34.8009 48.9266 36.087 48.9266 37.6135ZM47.2981 37.6135C47.2981 36.7039 46.5581 35.9639 45.6486 35.9639C44.739 35.9639 43.9991 36.704 43.9991 37.6135C43.9991 38.523 44.739 39.2629 45.6486 39.2629C46.5581 39.2629 47.2981 38.5229 47.2981 37.6135Z" fill="white"/>
<path d="M296.552 35V18.94H298.224V35H296.552ZM302.902 35V23.362H304.222V28.246H303.958C303.958 27.1607 304.119 26.2293 304.442 25.452C304.764 24.6747 305.248 24.0733 305.894 23.648C306.539 23.2227 307.353 23.01 308.336 23.01H308.402C309.868 23.01 310.961 23.472 311.68 24.396C312.398 25.3053 312.758 26.5887 312.758 28.246V35H311.13V27.894C311.13 26.882 310.851 26.068 310.294 25.452C309.736 24.836 308.959 24.528 307.962 24.528C306.935 24.528 306.106 24.8507 305.476 25.496C304.86 26.1267 304.552 26.9627 304.552 28.004V35H302.902ZM319.376 35L315.284 23.362H316.978L321.026 35H319.376ZM319.816 35V33.658H321.906V35H319.816ZM320.718 35L324.26 23.362H325.888L322.28 35H320.718ZM333.48 35.374C332.483 35.374 331.618 35.2053 330.884 34.868C330.151 34.516 329.55 34.054 329.08 33.482C328.611 32.8953 328.259 32.2427 328.024 31.524C327.804 30.8053 327.694 30.0647 327.694 29.302V28.994C327.694 28.246 327.804 27.5127 328.024 26.794C328.259 26.0753 328.611 25.43 329.08 24.858C329.55 24.286 330.136 23.8313 330.84 23.494C331.559 23.142 332.395 22.966 333.348 22.966C334.566 22.966 335.578 23.2373 336.384 23.78C337.206 24.3227 337.822 25.0193 338.232 25.87C338.643 26.706 338.848 27.608 338.848 28.576V29.434H328.442V28.158H337.704L337.286 28.796C337.286 27.9307 337.132 27.1753 336.824 26.53C336.531 25.87 336.091 25.3567 335.504 24.99C334.932 24.6087 334.214 24.418 333.348 24.418C332.439 24.418 331.684 24.6307 331.082 25.056C330.481 25.4813 330.026 26.046 329.718 26.75C329.425 27.454 329.278 28.2533 329.278 29.148C329.278 30.028 329.425 30.8347 329.718 31.568C330.026 32.2867 330.488 32.8587 331.104 33.284C331.735 33.7093 332.527 33.922 333.48 33.922C334.492 33.922 335.314 33.6947 335.944 33.24C336.575 32.7707 336.964 32.2207 337.11 31.59H338.65C338.504 32.3673 338.196 33.042 337.726 33.614C337.257 34.1713 336.663 34.604 335.944 34.912C335.226 35.22 334.404 35.374 333.48 35.374ZM345.699 35.33C344.203 35.33 343.051 35.0073 342.245 34.362C341.438 33.702 341.027 32.822 341.013 31.722H342.553C342.582 32.2793 342.831 32.7853 343.301 33.24C343.785 33.6947 344.584 33.922 345.699 33.922C346.74 33.922 347.517 33.7093 348.031 33.284C348.559 32.844 348.823 32.316 348.823 31.7C348.823 31.128 348.603 30.688 348.163 30.38C347.737 30.0573 347.114 29.852 346.293 29.764L344.973 29.632C343.917 29.5147 343.059 29.192 342.399 28.664C341.753 28.1213 341.431 27.3807 341.431 26.442C341.431 25.7527 341.607 25.1513 341.959 24.638C342.311 24.1247 342.802 23.7287 343.433 23.45C344.078 23.1567 344.833 23.01 345.699 23.01C346.945 23.01 347.957 23.3033 348.735 23.89C349.527 24.4767 349.93 25.3127 349.945 26.398H348.405C348.39 25.8407 348.155 25.3713 347.701 24.99C347.246 24.6087 346.579 24.418 345.699 24.418C344.789 24.418 344.107 24.616 343.653 25.012C343.213 25.408 342.993 25.892 342.993 26.464C342.993 26.948 343.161 27.3513 343.499 27.674C343.836 27.982 344.364 28.1727 345.083 28.246L346.403 28.378C347.576 28.51 348.529 28.8473 349.263 29.39C350.011 29.9327 350.385 30.71 350.385 31.722C350.385 32.4113 350.187 33.0347 349.791 33.592C349.409 34.1347 348.867 34.56 348.163 34.868C347.459 35.176 346.637 35.33 345.699 35.33ZM357.893 35.132C357.086 35.132 356.39 35.0147 355.803 34.78C355.216 34.5453 354.762 34.1493 354.439 33.592C354.116 33.02 353.955 32.2573 353.955 31.304V19.688H355.539V31.546C355.539 32.2207 355.722 32.7413 356.089 33.108C356.456 33.46 356.976 33.636 357.651 33.636H359.741V35.132H357.893ZM351.865 24.616V23.362H359.741V24.616H351.865ZM363.545 35V23.362H365.173V35H363.545ZM361.675 24.682V23.362H365.173V24.682H361.675ZM363.897 21.206C363.501 21.206 363.2 21.1033 362.995 20.898C362.804 20.678 362.709 20.4067 362.709 20.084C362.709 19.7613 362.804 19.4973 362.995 19.292C363.2 19.072 363.501 18.962 363.897 18.962C364.293 18.962 364.586 19.072 364.777 19.292C364.968 19.4973 365.063 19.7613 365.063 20.084C365.063 20.4067 364.968 20.678 364.777 20.898C364.586 21.1033 364.293 21.206 363.897 21.206ZM369.503 35V23.34H370.823V28.246H370.559C370.559 27.1753 370.706 26.2513 370.999 25.474C371.307 24.6967 371.762 24.0953 372.363 23.67C372.964 23.23 373.727 23.01 374.651 23.01H374.717C375.641 23.01 376.404 23.2227 377.005 23.648C377.606 24.0733 378.054 24.6747 378.347 25.452C378.64 26.2293 378.787 27.1607 378.787 28.246H378.259C378.259 27.1753 378.406 26.2513 378.699 25.474C379.007 24.6967 379.462 24.0953 380.063 23.67C380.679 23.23 381.449 23.01 382.373 23.01H382.439C383.363 23.01 384.126 23.2227 384.727 23.648C385.343 24.0733 385.798 24.6747 386.091 25.452C386.399 26.2293 386.553 27.1607 386.553 28.246V35H384.903V27.872C384.903 26.8453 384.654 26.0313 384.155 25.43C383.656 24.8287 382.938 24.528 381.999 24.528C381.031 24.528 380.261 24.8433 379.689 25.474C379.132 26.09 378.853 26.926 378.853 27.982V35H377.203V27.872C377.203 26.8453 376.954 26.0313 376.455 25.43C375.956 24.8287 375.238 24.528 374.299 24.528C373.331 24.528 372.561 24.8433 371.989 25.474C371.432 26.09 371.153 26.926 371.153 27.982V35H369.503ZM395.527 35.374C394.53 35.374 393.665 35.2053 392.931 34.868C392.198 34.516 391.597 34.054 391.127 33.482C390.658 32.8953 390.306 32.2427 390.071 31.524C389.851 30.8053 389.741 30.0647 389.741 29.302V28.994C389.741 28.246 389.851 27.5127 390.071 26.794C390.306 26.0753 390.658 25.43 391.127 24.858C391.597 24.286 392.183 23.8313 392.887 23.494C393.606 23.142 394.442 22.966 395.395 22.966C396.613 22.966 397.625 23.2373 398.431 23.78C399.253 24.3227 399.869 25.0193 400.279 25.87C400.69 26.706 400.895 27.608 400.895 28.576V29.434H390.489V28.158H399.751L399.333 28.796C399.333 27.9307 399.179 27.1753 398.871 26.53C398.578 25.87 398.138 25.3567 397.551 24.99C396.979 24.6087 396.261 24.418 395.395 24.418C394.486 24.418 393.731 24.6307 393.129 25.056C392.528 25.4813 392.073 26.046 391.765 26.75C391.472 27.454 391.325 28.2533 391.325 29.148C391.325 30.028 391.472 30.8347 391.765 31.568C392.073 32.2867 392.535 32.8587 393.151 33.284C393.782 33.7093 394.574 33.922 395.527 33.922C396.539 33.922 397.361 33.6947 397.991 33.24C398.622 32.7707 399.011 32.2207 399.157 31.59H400.697C400.551 32.3673 400.243 33.042 399.773 33.614C399.304 34.1713 398.71 34.604 397.991 34.912C397.273 35.22 396.451 35.374 395.527 35.374ZM404.072 35V23.362H405.392V28.246H405.128C405.128 27.1607 405.289 26.2293 405.612 25.452C405.934 24.6747 406.418 24.0733 407.064 23.648C407.709 23.2227 408.523 23.01 409.506 23.01H409.572C411.038 23.01 412.131 23.472 412.85 24.396C413.568 25.3053 413.928 26.5887 413.928 28.246V35H412.3V27.894C412.3 26.882 412.021 26.068 411.464 25.452C410.906 24.836 410.129 24.528 409.132 24.528C408.105 24.528 407.276 24.8507 406.646 25.496C406.03 26.1267 405.722 26.9627 405.722 28.004V35H404.072ZM422.26 35.132C421.454 35.132 420.757 35.0147 420.17 34.78C419.584 34.5453 419.129 34.1493 418.806 33.592C418.484 33.02 418.322 32.2573 418.322 31.304V19.688H419.906V31.546C419.906 32.2207 420.09 32.7413 420.456 33.108C420.823 33.46 421.344 33.636 422.018 33.636H424.108V35.132H422.26ZM416.232 24.616V23.362H424.108V24.616H416.232ZM432.403 35.374C431.405 35.374 430.525 35.2053 429.763 34.868C429.015 34.516 428.377 34.054 427.849 33.482C427.335 32.8953 426.939 32.2427 426.661 31.524C426.397 30.8053 426.265 30.072 426.265 29.324V29.016C426.265 28.268 426.404 27.5347 426.683 26.816C426.961 26.0827 427.365 25.43 427.893 24.858C428.421 24.286 429.059 23.8313 429.807 23.494C430.569 23.142 431.435 22.966 432.403 22.966C433.385 22.966 434.251 23.142 434.999 23.494C435.761 23.8313 436.407 24.286 436.935 24.858C437.463 25.43 437.859 26.0827 438.123 26.816C438.401 27.5347 438.541 28.268 438.541 29.016V29.324C438.541 30.072 438.409 30.8053 438.145 31.524C437.881 32.2427 437.485 32.8953 436.957 33.482C436.443 34.054 435.805 34.516 435.043 34.868C434.28 35.2053 433.4 35.374 432.403 35.374ZM432.403 33.9C433.371 33.9 434.185 33.6873 434.845 33.262C435.519 32.822 436.033 32.25 436.385 31.546C436.737 30.8273 436.913 30.0353 436.913 29.17C436.913 28.29 436.729 27.498 436.363 26.794C436.011 26.0753 435.497 25.5107 434.823 25.1C434.148 24.6747 433.341 24.462 432.403 24.462C431.479 24.462 430.679 24.6747 430.005 25.1C429.33 25.5107 428.809 26.0753 428.443 26.794C428.091 27.498 427.915 28.29 427.915 29.17C427.915 30.0353 428.091 30.8273 428.443 31.546C428.795 32.25 429.301 32.822 429.961 33.262C430.635 33.6873 431.449 33.9 432.403 33.9ZM445.579 35.33C444.083 35.33 442.932 35.0073 442.125 34.362C441.319 33.702 440.908 32.822 440.893 31.722H442.433C442.463 32.2793 442.712 32.7853 443.181 33.24C443.665 33.6947 444.465 33.922 445.579 33.922C446.621 33.922 447.398 33.7093 447.911 33.284C448.439 32.844 448.703 32.316 448.703 31.7C448.703 31.128 448.483 30.688 448.043 30.38C447.618 30.0573 446.995 29.852 446.173 29.764L444.853 29.632C443.797 29.5147 442.939 29.192 442.279 28.664C441.634 28.1213 441.311 27.3807 441.311 26.442C441.311 25.7527 441.487 25.1513 441.839 24.638C442.191 24.1247 442.683 23.7287 443.313 23.45C443.959 23.1567 444.714 23.01 445.579 23.01C446.826 23.01 447.838 23.3033 448.615 23.89C449.407 24.4767 449.811 25.3127 449.825 26.398H448.285C448.271 25.8407 448.036 25.3713 447.581 24.99C447.127 24.6087 446.459 24.418 445.579 24.418C444.67 24.418 443.988 24.616 443.533 25.012C443.093 25.408 442.873 25.892 442.873 26.464C442.873 26.948 443.042 27.3513 443.379 27.674C443.717 27.982 444.245 28.1727 444.963 28.246L446.283 28.378C447.457 28.51 448.41 28.8473 449.143 29.39C449.891 29.9327 450.265 30.71 450.265 31.722C450.265 32.4113 450.067 33.0347 449.671 33.592C449.29 34.1347 448.747 34.56 448.043 34.868C447.339 35.176 446.518 35.33 445.579 35.33Z" fill="white" fill-opacity="0.57"/>
</svg>
