<svg width="340" height="70" viewBox="0 0 340 70" fill="none" xmlns="http://www.w3.org/2000/svg">
<path d="M102.031 54.8148C98.442 54.8148 95.3661 54.1923 92.8028 52.9473C90.2762 51.6657 88.2073 49.9996 86.5961 47.949C85.0215 45.8984 83.8681 43.683 83.1357 41.3028C82.4034 38.886 82.0372 36.5425 82.0372 34.2722V33.2286C82.0372 30.7752 82.4034 28.3401 83.1357 25.9233C83.9047 23.4699 85.0765 21.2545 86.651 19.2772C88.2622 17.2998 90.3128 15.7252 92.8028 14.5535C95.2929 13.3451 98.2406 12.7409 101.646 12.7409C105.088 12.7409 108.054 13.3451 110.544 14.5535C113.071 15.7619 115.085 17.4646 116.586 19.6617C118.087 21.8221 119.003 24.3854 119.332 27.3514H115.103C114.81 24.9713 114.041 22.9939 112.796 21.4193C111.551 19.8081 109.958 18.5997 108.018 17.7942C106.113 16.9886 103.99 16.5858 101.646 16.5858C99.1194 16.5858 96.8857 17.0435 94.945 17.9589C93.0409 18.8378 91.448 20.0828 90.1664 21.694C88.8847 23.2685 87.9144 25.0994 87.2552 27.1866C86.5961 29.2372 86.2665 31.4343 86.2665 33.7779C86.2665 36.0115 86.5778 38.1537 87.2003 40.2043C87.8594 42.2549 88.8481 44.1041 90.1664 45.7519C91.4846 47.3631 93.1324 48.6447 95.1098 49.5968C97.0871 50.5122 99.3941 50.97 102.031 50.97C105.692 50.97 108.768 50.0545 111.258 48.2236C113.748 46.3561 115.286 43.683 115.872 40.2043H120.101C119.699 42.9506 118.747 45.4407 117.245 47.6743C115.744 49.8714 113.712 51.6108 111.148 52.8924C108.622 54.174 105.582 54.8148 102.031 54.8148ZM140.641 54.8148C138.151 54.8148 135.954 54.3937 134.05 53.5515C132.182 52.6727 130.589 51.5192 129.271 50.0911C127.99 48.6264 127.001 46.9969 126.305 45.2026C125.646 43.4084 125.317 41.5775 125.317 39.71V38.941C125.317 37.0735 125.664 35.2426 126.36 33.4483C127.056 31.6174 128.063 29.9879 129.381 28.5598C130.699 27.1317 132.292 25.9966 134.16 25.1543C136.064 24.2755 138.224 23.8361 140.641 23.8361C143.094 23.8361 145.255 24.2755 147.122 25.1543C149.027 25.9966 150.638 27.1317 151.956 28.5598C153.274 29.9879 154.263 31.6174 154.922 33.4483C155.618 35.2426 155.966 37.0735 155.966 38.941V39.71C155.966 41.5775 155.636 43.4084 154.977 45.2026C154.318 46.9969 153.329 48.6264 152.011 50.0911C150.729 51.5192 149.136 52.6727 147.232 53.5515C145.328 54.3937 143.131 54.8148 140.641 54.8148ZM140.641 51.1347C143.058 51.1347 145.09 50.6038 146.738 49.5419C148.422 48.4433 149.704 47.0152 150.583 45.2576C151.462 43.4633 151.901 41.4859 151.901 39.3255C151.901 37.1284 151.443 35.151 150.528 33.3934C149.649 31.5991 148.367 30.1893 146.683 29.164C144.999 28.1021 142.985 27.5711 140.641 27.5711C138.334 27.5711 136.338 28.1021 134.654 29.164C132.97 30.1893 131.67 31.5991 130.754 33.3934C129.875 35.151 129.436 37.1284 129.436 39.3255C129.436 41.4859 129.875 43.4633 130.754 45.2576C131.633 47.0152 132.896 48.4433 134.544 49.5419C136.229 50.6038 138.261 51.1347 140.641 51.1347ZM164.366 53.8811V24.8248H167.662V37.0185H167.003C167.003 34.3088 167.406 31.9836 168.211 30.0428C169.017 28.1021 170.225 26.6007 171.837 25.5388C173.448 24.4769 175.48 23.946 177.933 23.946H178.098C181.76 23.946 184.488 25.0994 186.282 27.4063C188.077 29.6767 188.974 32.8807 188.974 37.0185V53.8811H184.909V36.1397C184.909 33.6131 184.213 31.5808 182.822 30.0428C181.43 28.5049 179.49 27.7359 177 27.7359C174.436 27.7359 172.367 28.5415 170.793 30.1527C169.255 31.7273 168.486 33.8145 168.486 36.4143V53.8811H164.366ZM209.778 54.2106C207.764 54.2106 206.025 53.9177 204.56 53.3318C203.095 52.7459 201.96 51.7572 201.155 50.3658C200.349 48.9377 199.946 47.0335 199.946 44.6534V15.652H203.901V45.2576C203.901 46.942 204.359 48.2419 205.274 49.1574C206.19 50.0362 207.489 50.4756 209.174 50.4756H214.392V54.2106H209.778ZM194.728 27.9556V24.8248H214.392V27.9556H194.728ZM222.351 53.8811V24.8248H225.646V36.9636H225.317C225.317 32.7159 226.251 29.5851 228.118 27.5711C229.986 25.5205 232.915 24.4952 236.906 24.4952H237.84V28.2302H236.137C232.988 28.2302 230.59 29.0541 228.942 30.702C227.294 32.3131 226.47 34.6933 226.47 37.8424V53.8811H222.351ZM257.146 54.8148C254.656 54.8148 252.459 54.3937 250.555 53.5515C248.687 52.6727 247.094 51.5192 245.776 50.0911C244.495 48.6264 243.506 46.9969 242.81 45.2026C242.151 43.4084 241.821 41.5775 241.821 39.71V38.941C241.821 37.0735 242.169 35.2426 242.865 33.4483C243.561 31.6174 244.568 29.9879 245.886 28.5598C247.204 27.1317 248.797 25.9966 250.665 25.1543C252.569 24.2755 254.729 23.8361 257.146 23.8361C259.599 23.8361 261.76 24.2755 263.627 25.1543C265.532 25.9966 267.143 27.1317 268.461 28.5598C269.779 29.9879 270.768 31.6174 271.427 33.4483C272.123 35.2426 272.471 37.0735 272.471 38.941V39.71C272.471 41.5775 272.141 43.4084 271.482 45.2026C270.823 46.9969 269.834 48.6264 268.516 50.0911C267.234 51.5192 265.641 52.6727 263.737 53.5515C261.833 54.3937 259.636 54.8148 257.146 54.8148ZM257.146 51.1347C259.563 51.1347 261.595 50.6038 263.243 49.5419C264.927 48.4433 266.209 47.0152 267.088 45.2576C267.967 43.4633 268.406 41.4859 268.406 39.3255C268.406 37.1284 267.948 35.151 267.033 33.3934C266.154 31.5991 264.872 30.1893 263.188 29.164C261.504 28.1021 259.49 27.5711 257.146 27.5711C254.839 27.5711 252.843 28.1021 251.159 29.164C249.475 30.1893 248.175 31.5991 247.259 33.3934C246.38 35.151 245.941 37.1284 245.941 39.3255C245.941 41.4859 246.38 43.4633 247.259 45.2576C248.138 47.0152 249.401 48.4433 251.049 49.5419C252.734 50.6038 254.766 51.1347 257.146 51.1347ZM281.146 53.8811V13.7845H285.266V53.8811H281.146ZM276.917 17.135V13.7845H285.266V17.135H276.917ZM296.219 53.8811V13.7845H300.338V53.8811H296.219ZM291.989 17.135V13.7845H300.338V17.135H291.989ZM323.156 54.8148C320.666 54.8148 318.505 54.3937 316.674 53.5515C314.843 52.6727 313.342 51.5192 312.17 50.0911C310.998 48.6264 310.12 46.9969 309.534 45.2026C308.985 43.4084 308.71 41.5592 308.71 39.655V38.8861C308.71 37.0185 308.985 35.1876 309.534 33.3934C310.12 31.5991 310.998 29.9879 312.17 28.5598C313.342 27.1317 314.807 25.9966 316.564 25.1543C318.359 24.2755 320.446 23.8361 322.826 23.8361C325.865 23.8361 328.392 24.5135 330.406 25.8684C332.457 27.2233 333.995 28.9626 335.02 31.0864C336.045 33.1737 336.558 35.4257 336.558 37.8424V39.9846H310.577V36.7988H333.702L332.658 38.3917C332.658 36.2313 332.273 34.3454 331.505 32.7342C330.772 31.0864 329.674 29.8048 328.209 28.8894C326.781 27.9373 324.987 27.4613 322.826 27.4613C320.556 27.4613 318.67 27.9922 317.169 29.0541C315.667 30.1161 314.532 31.5259 313.763 33.2835C313.031 35.0412 312.665 37.0368 312.665 39.2705C312.665 41.4676 313.031 43.4816 313.763 45.3125C314.532 47.1068 315.686 48.5349 317.224 49.5968C318.798 50.6587 320.775 51.1897 323.156 51.1897C325.682 51.1897 327.733 50.6221 329.307 49.4869C330.882 48.3152 331.852 46.942 332.219 45.3674H336.063C335.697 47.3082 334.928 48.9926 333.757 50.4207C332.585 51.8122 331.102 52.8924 329.307 53.6614C327.513 54.4303 325.463 54.8148 323.156 54.8148Z" fill="white"/>
<path d="M29.1963 43.8957C29.1963 45.3343 28.2109 46.5468 26.8797 46.8937V47.7599C26.8797 48.3197 26.4257 48.7737 25.8659 48.7737C25.306 48.7737 24.8521 48.3197 24.8521 47.7599V46.9358C24.089 46.7856 23.3972 46.3493 22.9319 45.7061C22.6038 45.2524 22.7055 44.6187 23.1592 44.2905C23.613 43.9624 24.2469 44.0643 24.5748 44.5178C24.7777 44.7984 25.1021 44.9658 25.4429 44.9658H26.0989C26.6888 44.9658 27.1689 44.4857 27.1689 43.8957C27.1689 43.3057 26.6888 42.8258 26.0989 42.8258H25.633C23.9249 42.8258 22.5355 41.4361 22.5355 39.7282C22.5355 38.2896 23.521 37.0771 24.8522 36.7301V35.8641C24.8522 35.3043 25.3061 34.8503 25.866 34.8503C26.4259 34.8503 26.8798 35.3043 26.8798 35.8641V36.6881C27.6429 36.8382 28.3347 37.2745 28.8 37.9178C29.1281 38.3715 29.0264 39.0052 28.5727 39.3334C28.1189 39.6615 27.4852 39.5597 27.1571 39.1061C26.9542 38.8255 26.6298 38.6581 26.289 38.6581H25.6328C25.0429 38.6581 24.5629 39.1381 24.5629 39.7282C24.5629 40.3182 25.0429 40.7982 25.6328 40.7982H26.0988C27.8069 40.7982 29.1963 42.1877 29.1963 43.8957ZM64.7854 37.9363V64.9305C64.7854 66.6096 63.4193 67.9756 61.7402 67.9756H35.2725C33.5935 67.9756 32.2274 66.6096 32.2274 64.9305V63.9167C32.1734 63.9171 32.1194 63.9191 32.0656 63.9191H19.6662C16.6062 63.9191 13.7446 63.271 11.1609 61.9929C8.57742 60.7148 6.32606 58.8333 4.46931 56.4011C0.224085 50.8394 -0.469344 44.3604 2.40803 37.1438C4.85138 31.0156 9.44408 25.5321 13.3861 21.6095C12.1255 21.2396 11.2021 20.0733 11.2021 18.6946C11.2021 17.0196 12.5649 15.6568 14.2399 15.6568H14.2573C13.8746 14.8575 13.3665 14.0647 12.2442 12.4625C10.8676 10.4976 9.73111 8.50116 10.7277 7.20871C11.6683 5.989 13.824 6.17516 18.4161 7.87249C18.9392 8.06587 19.0195 8.09577 19.7577 6.90534C20.6364 5.48819 21.9643 3.34669 25.8659 3.34669C29.7674 3.34669 31.0954 5.48819 31.9739 6.90534C32.7121 8.09577 32.7924 8.06587 33.3156 7.87249C37.9081 6.17503 40.0634 5.98925 41.0041 7.20871C42.0005 8.50103 40.8642 10.4976 39.4875 12.4625C38.3651 14.0647 37.8571 14.8575 37.4744 15.6568H37.4917C39.1669 15.6568 40.5297 17.0196 40.5297 18.6946C40.5297 20.0735 39.6058 21.24 38.3449 21.6098C41.7459 24.9957 45.7333 29.6473 48.3183 34.8911H61.7403C63.4194 34.8911 64.7854 36.2572 64.7854 37.9363ZM16.4667 15.657H35.2649C35.8225 14.2667 36.3165 13.4554 37.827 11.2993C39.0922 9.49315 39.3163 8.73382 39.3499 8.46961C39.0108 8.4008 37.7967 8.37786 34.0186 9.77448C31.8617 10.5714 30.9306 9.07027 30.251 7.97399C29.4586 6.69599 28.6391 5.37439 25.866 5.37439C23.0929 5.37439 22.2734 6.69599 21.4809 7.97399C20.8011 9.07015 19.8706 10.5719 17.7133 9.77448C13.9343 8.37773 12.7209 8.40105 12.382 8.46961C12.4156 8.73382 12.6395 9.49315 13.9049 11.2993C15.4154 13.4554 15.9092 14.2667 16.467 15.657H16.4667ZM13.2297 18.6946C13.2297 19.2517 13.6828 19.705 14.2399 19.705H37.4917C38.0488 19.705 38.5021 19.2518 38.5021 18.6946C38.5021 18.1374 38.0489 17.6844 37.4917 17.6844H14.2398C13.6827 17.6844 13.2297 18.1376 13.2297 18.6946ZM32.2273 61.8891V55.784C30.2399 56.6888 28.0712 57.1632 25.8659 57.1632C17.4012 57.1632 10.5145 50.2767 10.5145 41.812C10.5145 33.3473 17.4012 26.4606 25.8659 26.4606C31.6618 26.4606 36.9694 29.7488 39.5704 34.891H46.0389C43.201 29.5513 38.8951 24.8803 35.5586 21.7325H16.173C12.1277 25.5485 6.89378 31.3675 4.29126 37.8946C1.69635 44.4027 2.29842 50.2154 6.08085 55.1706C9.43699 59.5673 14.1347 61.8913 19.666 61.8913H32.0653C32.1193 61.8913 32.1732 61.8894 32.2271 61.8889L32.2273 61.8891ZM32.2273 37.9363C32.2273 37.2562 32.4516 36.6275 32.8297 36.1201C31.1278 34.0388 28.5818 32.8185 25.8658 32.8185C20.9067 32.8185 16.8722 36.8529 16.8722 41.812C16.8722 46.7711 20.9067 50.8055 25.8658 50.8055C28.2502 50.8055 30.5464 49.8473 32.2271 48.1665V37.9363H32.2273ZM35.2724 34.8911H37.2512C34.8541 30.9565 30.5435 28.4883 25.8658 28.4883C18.519 28.4883 12.542 34.4653 12.542 41.8121C12.542 49.1589 18.519 55.1358 25.8658 55.1358C28.0965 55.1358 30.2833 54.578 32.2271 53.5203V50.8091C30.3805 52.1124 28.156 52.8332 25.8658 52.8332C19.7887 52.8332 14.8446 47.8891 14.8446 41.8121C14.8446 35.7351 19.7887 30.791 25.8658 30.791C29.2584 30.791 32.4334 32.3454 34.5175 34.9861C34.7589 34.9242 35.0119 34.8913 35.2723 34.8913L35.2724 34.8911ZM62.7578 37.9363C62.7578 37.3752 62.3012 36.9187 61.7402 36.9187H35.2725C34.7114 36.9187 34.255 37.3753 34.255 37.9363V64.9305C34.255 65.4916 34.7115 65.9481 35.2725 65.9481H61.7402C62.3013 65.9481 62.7578 65.4915 62.7578 64.9305V37.9363ZM43.5922 47.711C43.5922 49.6114 42.2863 51.2126 40.5248 51.6645V62.244C40.5248 62.8038 40.0709 63.2577 39.5111 63.2577C38.9512 63.2577 38.4973 62.8038 38.4973 62.244V51.6645C36.7357 51.2126 35.4297 49.6114 35.4297 47.711C35.4297 45.8105 36.7357 44.2091 38.4973 43.7572V40.6228C38.4973 40.063 38.9512 39.609 39.5111 39.609C40.0709 39.609 40.5248 40.063 40.5248 40.6228V43.7572C42.2863 44.2091 43.5922 45.8104 43.5922 47.711ZM41.5646 47.711C41.5646 46.5784 40.6433 45.6572 39.5111 45.6572C38.3788 45.6572 37.4573 46.5786 37.4573 47.711C37.4573 48.8434 38.3787 49.7645 39.5111 49.7645C40.6435 49.7645 41.5646 48.8432 41.5646 47.711ZM52.5876 56.597C52.5876 58.4976 51.2817 60.0988 49.5202 60.5507V62.244C49.5202 62.8038 49.0662 63.2577 48.5064 63.2577C47.9465 63.2577 47.4926 62.8038 47.4926 62.244V60.5507C45.731 60.0988 44.4251 58.4976 44.4251 56.597C44.4251 54.6965 45.731 53.0953 47.4926 52.6434V40.6228C47.4926 40.063 47.9465 39.609 48.5064 39.609C49.0662 39.609 49.5202 40.063 49.5202 40.6228V52.6434C51.2817 53.0953 52.5876 54.6965 52.5876 56.597ZM50.56 56.597C50.56 55.4645 49.6388 54.5434 48.5064 54.5434C47.374 54.5434 46.4527 55.4646 46.4527 56.597C46.4527 57.7294 47.374 58.6507 48.5064 58.6507C49.6388 58.6507 50.56 57.7294 50.56 56.597ZM61.5828 47.711C61.5828 49.6114 60.2769 51.2126 58.5153 51.6645V62.244C58.5153 62.8038 58.0614 63.2577 57.5016 63.2577C56.9417 63.2577 56.4878 62.8038 56.4878 62.244V51.6645C54.7262 51.2126 53.4203 49.6114 53.4203 47.711C53.4203 45.8105 54.7262 44.2091 56.4878 43.7572V40.6228C56.4878 40.063 56.9417 39.609 57.5016 39.609C58.0614 39.609 58.5153 40.063 58.5153 40.6228V43.7572C60.2769 44.2092 61.5828 45.8104 61.5828 47.711ZM59.5552 47.711C59.5552 46.5784 58.634 45.6572 57.5016 45.6572C56.3692 45.6572 55.4479 46.5786 55.4479 47.711C55.4479 48.8434 56.3692 49.7645 57.5016 49.7645C58.634 49.7645 59.5552 48.8432 59.5552 47.711Z" fill="white"/>
</svg>
